# xmcd
#
# Track frame offsets: 
#        150
#        20175
#        39932
#        55392
#        70045
#        86062
#        120290
#        134680
#        147172
#        166087
#
# Disc length: 2459 seconds
#
# Revision: 0
# Processed by: cddbd v1.5.2PL0 Copyright (c) Steve Scherf et al.
# Submitted via: ExactAudioCopy v0.99pb5
#
DISCID=8609990a
DTITLE=Soulmates - Big Trouble
DYEAR=1998
DGENRE=Blues
TTITLE0=Give Me One Day
TTITLE1=Talkin' About
TTITLE2=Can't Run, Can't Hide
TTITLE3=Tell Somebody
TTITLE4=Rain Sometime
TTITLE5=Don't Cry
TTITLE6=Good Lookin' Woman
TTITLE7=Don't Wanna Love You Anymore
TTITLE8=Big Trouble
TTITLE9=Give Up On Love
EXTD=
EXTT0=
EXTT1=
EXTT2=
EXTT3=
EXTT4=
EXTT5=
EXTT6=
EXTT7=
EXTT8=
EXTT9=
PLAYORDER=
